<?xml version="1.0" encoding="utf-8"?>
<!-- Generator: Adobe Illustrator 26.3.1, SVG Export Plug-In . SVG Version: 6.00 Build 0)  -->
<svg version="1.1" id="Layer_1" xmlns="http://www.w3.org/2000/svg" xmlns:xlink="http://www.w3.org/1999/xlink" x="0px" y="0px"
	 viewBox="0 0 512 512" style="enable-background:new 0 0 512 512;" xml:space="preserve">
<style type="text/css">
	.st0{fill:#FFFFFF;}
</style>
<path class="st0" d="M449.1,120.6H62.9c-14,0-25.4,11.4-25.4,25.4v220c0,14,11.4,25.4,25.4,25.4h27.8h37.9h48.9
	c38.7-1.6,59.7-69.7,61.4-72.3c10.7-15.9,24.4-15.6,35,0.9c1.5,2.4,22.2,69.8,60.8,71.4h48.9h37.9h27.8c14,0,25.4-11.4,25.4-25.4
	V146C474.5,132,463.2,120.6,449.1,120.6z M151.1,294c-27.8,0-50.3-22.5-50.3-50.3c0-27.8,22.5-50.3,50.3-50.3s50.3,22.5,50.3,50.3
	C201.4,271.5,178.9,294,151.1,294z M360.9,294c-27.8,0-50.3-22.5-50.3-50.3c0-27.8,22.5-50.3,50.3-50.3s50.3,22.5,50.3,50.3
	C411.2,271.5,388.7,294,360.9,294z"/>
</svg>
